<?xml version="1.0" encoding="utf-8"?><svg xml:space="preserve" viewBox="0 0 100 100" y="0" x="0" xmlns="http://www.w3.org/2000/svg" id="圖層_1" version="1.1" width="47px" height="47px" xmlns:xlink="http://www.w3.org/1999/xlink" style="width:100%;height:100%;background-size:initial;background-repeat-y:initial;background-repeat-x:initial;background-position-y:initial;background-position-x:initial;background-origin:initial;background-image:initial;background-color:rgb(241, 242, 243);background-clip:initial;background-attachment:initial;animation-play-state:paused" ><g class="ldl-scale" style="transform-origin:50% 50%;transform:rotate(0deg) scale(0.8, 0.8);animation-play-state:paused" ><path fill="#333" d="M74.342 10H37.136a5.069 5.069 0 0 0-5.069 5.069v11.99c0 1.001-.297 1.98-.852 2.813l-9.773 14.651a5.067 5.067 0 0 0-.852 2.813V54.5h5.077V63H20.59v21.931A5.069 5.069 0 0 0 25.659 90h48.683a5.069 5.069 0 0 0 5.069-5.069V15.069A5.07 5.07 0 0 0 74.342 10z" style="animation-play-state:paused" ></path>
<path d="M36.372 14.134h6.886v14.671h-6.886z" fill="#e0e0e0" style="fill:rgb(255, 255, 255);animation-play-state:paused" ></path>
<path d="M46.701 14.134h6.886v14.671h-6.886z" fill="#e0e0e0" style="fill:rgb(255, 255, 255);animation-play-state:paused" ></path>
<path d="M57.715 14.134h6.886v14.671h-6.886z" fill="#e0e0e0" style="fill:rgb(255, 255, 255);animation-play-state:paused" ></path>
<path d="M68.044 14.134h6.886v14.671h-6.886z" fill="#e0e0e0" style="fill:rgb(255, 255, 255);animation-play-state:paused" ></path>
<metadata xmlns:d="https://loading.io/stock/" style="animation-play-state:paused" ><d:name style="animation-play-state:paused" >memory card</d:name>
<d:tags style="animation-play-state:paused" >micro sd,xd,cf,ms,flash memory,usb stick,memory card,camera</d:tags>
<d:license style="animation-play-state:paused" >by</d:license>
<d:slug style="animation-play-state:paused" >6atisx</d:slug></metadata></g><!-- generated by https://loading.io/ --></svg>