<svg xmlns="http://www.w3.org/2000/svg" viewBox="0 0 512 512" width="512" height="512"><defs><filter id="shadow-1" height="300%" width="300%" x="-100%" y="-100%"><feFlood flood-color="rgba(58, 63, 94, 1)" result="flood"></feFlood><feComposite in="flood" in2="SourceGraphic" operator="out" result="composite"></feComposite><feGaussianBlur in="composite" stdDeviation="15" result="blur"></feGaussianBlur><feOffset dx="0" dy="0" result="offset"></feOffset><feComposite in2="SourceGraphic" in="offset" operator="atop"></feComposite></filter></defs><path d="M0 0h512v512H0z" fill="#1b1f21" fill-opacity="1"></path><g class="" transform="translate(0,0)" style=""><path d="M257.75 16.03A60 60 0 0 0 196 76a60 60 0 0 0 120 0 60 60 0 0 0-58.25-59.97zM250.72 166c-24.72.11-24.72 1.875-24.72 30v210h-60l90 90 90-90h-60V196c0-30 0-30-30-30-1.875 0-3.633-.007-5.28 0z" fill="#e64539" fill-opacity="1" filter="url(#shadow-1)"></path></g></svg>
