<?xml version="1.0" encoding="UTF-8" standalone="no"?>
<svg
   viewBox="0 0 512 512"
   version="1.1"
   id="svg6"
   sodipodi:docname="wounded_none.svg"
   width="512" height="512"
   inkscape:version="1.1.2 (0a00cf5339, 2022-02-04, custom)"
   xmlns:inkscape="http://www.inkscape.org/namespaces/inkscape"
   xmlns:sodipodi="http://sodipodi.sourceforge.net/DTD/sodipodi-0.dtd"
   xmlns="http://www.w3.org/2000/svg"
   xmlns:svg="http://www.w3.org/2000/svg">
  <defs
     id="defs10" />
  <sodipodi:namedview
     id="namedview8"
     pagecolor="#ffffff"
     bordercolor="#666666"
     borderopacity="1.0"
     inkscape:pageshadow="2"
     inkscape:pageopacity="0"
     inkscape:pagecheckerboard="true"
     showgrid="false"
     units="mm"
     inkscape:zoom="2.0080728"
     inkscape:cx="234.30425"
     inkscape:cy="253.22787"
     inkscape:window-width="1716"
     inkscape:window-height="1413"
     inkscape:window-x="3160"
     inkscape:window-y="673"
     inkscape:window-maximized="1"
     inkscape:current-layer="svg6" />
  <path
     d="m 371.28,18.906 c -40.78,0.092 -82.526,21.026 -110.624,65.813 -35.57,-51.667 -93.288,-71.73 -143.5,-61.47 -54.427,11.12 -99.783,58.946 -97.47,134.688 2.17,70.978 43.028,120.858 91.25,168.53 48.225,47.674 104.27,94.2 141.97,159.5 L 261,500 l 8.094,-14.03 c 37.55,-65.042 95.404,-109.375 144.625,-156.064 49.22,-46.69 90.167,-97.202 87.905,-172.53 C 499.49,86.238 455.06,36.64 401.875,22.81 391.903,20.217 381.623,18.88 371.281,18.904 Z m -0.06,18.532 c 8.754,0.06 17.462,1.233 25.936,3.437 45.197,11.753 83.9,53.345 85.813,117.063 2.054,68.423 -33.94,112.727 -82.095,158.406 -44.992,42.678 -100.275,85.296 -139.844,147 C 221.764,401.494 168.346,356.934 124.094,313.188 76.731,266.365 40.21005,223.78652 38.25005,159.65352 36.16605,91.353523 74.47,51.05 120.907,41.562 c 46.437,-9.487 101.338,10.72 131.938,65.844 l 8.5,15.375 8,-15.655 C 294.42,57.898 333.28,37.17 371.22,37.437 Z m 111.749,120.5 C 478.07002,-21.373119 271.55158,14.894287 261.345,122.781 218.42317,19.787619 158.55221,31.14383 98.312411,44.988502 -30.93741,120.15007 48.148064,237.04595 116.61804,313.29431 164.90568,367.06756 232.24986,419.11608 261.03,463.344 c 28.976,-43.9 118.41453,-111.2289 139.844,-147 43.86321,-22.62867 103.42855,-117.03586 82.095,-158.406 z"
     fill="#ffffff"
     fill-opacity="1"
     id="path2"
     sodipodi:nodetypes="ccccccccccsccccccccccccccccccsccc"
     style="fill:#008000" />
</svg>
