<?xml version="1.0" encoding="UTF-8" standalone="no"?>
<svg
   version="1.1"
   width="60"
   height="60"
   shape-rendering="crispEdges"
   id="svg37562"
   sodipodi:docname="d6_2.svg"
   inkscape:version="1.2.1 (9c6d41e410, 2022-07-14, custom)"
   xmlns:inkscape="http://www.inkscape.org/namespaces/inkscape"
   xmlns:sodipodi="http://sodipodi.sourceforge.net/DTD/sodipodi-0.dtd"
   xmlns="http://www.w3.org/2000/svg"
   xmlns:svg="http://www.w3.org/2000/svg">
  <defs
     id="defs37566" />
  <sodipodi:namedview
     id="namedview37564"
     pagecolor="#ffffff"
     bordercolor="#666666"
     borderopacity="1.0"
     inkscape:showpageshadow="2"
     inkscape:pageopacity="0.0"
     inkscape:pagecheckerboard="true"
     inkscape:deskcolor="#d1d1d1"
     showgrid="false"
     inkscape:zoom="11.313709"
     inkscape:cx="8.131728"
     inkscape:cy="39.06765"
     inkscape:window-width="1716"
     inkscape:window-height="1386"
     inkscape:window-x="1440"
     inkscape:window-y="702"
     inkscape:window-maximized="1"
     inkscape:current-layer="svg37562" />
  <path
     id="rect7254"
     style="fill:#242322;fill-opacity:1"
     d="M 10.00048,8.0017998 V 9.0018006 H 9.0004736 v 1.0000004 h -1 v 39.999996 h 1 v 1 H 10.00048 v 1 h 40 v -1 h 1 v -1 h 1 V 10.001801 h -1 V 9.0018006 h -1 V 8.0017998 Z"
     sodipodi:nodetypes="ccccccccccccccccccccc" />
  <path
     id="rect32912"
     d="M 24 16 L 24 17 L 25 17 L 26 17 L 27 17 L 28 17 L 29 17 L 30 17 L 31 17 L 32 17 L 33 17 L 34 17 L 35 17 L 36 17 L 36 16 L 35 16 L 34 16 L 33 16 L 32 16 L 31 16 L 30 16 L 29 16 L 28 16 L 27 16 L 26 16 L 25 16 L 24 16 z M 36 17 L 36 18 L 37 18 L 37 17 L 36 17 z M 37 18 L 37 19 L 38 19 L 38 18 L 37 18 z M 38 19 L 38 20 L 39 20 L 39 19 L 38 19 z M 39 20 L 39 21 L 39 22 L 39 23 L 39 24 L 39 25 L 39 26 L 39 27 L 39 28 L 39 29 L 40 29 L 40 28 L 40 27 L 40 26 L 40 25 L 40 24 L 40 23 L 40 22 L 40 21 L 40 20 L 39 20 z M 39 29 L 38 29 L 38 30 L 39 30 L 39 29 z M 38 30 L 37 30 L 37 31 L 38 31 L 38 30 z M 37 31 L 36 31 L 36 32 L 37 32 L 37 31 z M 36 32 L 35 32 L 34 32 L 34 33 L 35 33 L 36 33 L 36 32 z M 34 33 L 33 33 L 32 33 L 32 34 L 33 34 L 34 34 L 34 33 z M 32 34 L 31 34 L 30 34 L 30 35 L 31 35 L 32 35 L 32 34 z M 30 35 L 29 35 L 29 36 L 30 36 L 30 35 z M 29 36 L 28 36 L 28 37 L 27 37 L 27 38 L 28 38 L 29 38 L 30 38 L 31 38 L 32 38 L 33 38 L 34 38 L 34 37 L 34 36 L 33 36 L 33 37 L 32 37 L 31 37 L 30 37 L 29 37 L 29 36 z M 34 36 L 35 36 L 36 36 L 37 36 L 38 36 L 39 36 L 39 35 L 38 35 L 37 35 L 36 35 L 35 35 L 34 35 L 34 36 z M 39 36 L 39 37 L 39 38 L 39 39 L 39 40 L 39 41 L 39 42 L 40 42 L 40 41 L 40 40 L 40 39 L 40 38 L 40 37 L 40 36 L 39 36 z M 39 42 L 38 42 L 38 43 L 39 43 L 39 42 z M 38 43 L 37 43 L 36 43 L 35 43 L 34 43 L 33 43 L 32 43 L 31 43 L 30 43 L 29 43 L 28 43 L 27 43 L 26 43 L 25 43 L 24 43 L 23 43 L 22 43 L 21 43 L 21 44 L 22 44 L 23 44 L 24 44 L 25 44 L 26 44 L 27 44 L 28 44 L 29 44 L 30 44 L 31 44 L 32 44 L 33 44 L 34 44 L 35 44 L 36 44 L 37 44 L 38 44 L 38 43 z M 21 43 L 21 42 L 21 41 L 21 40 L 21 39 L 21 38 L 21 37 L 21 36 L 21 35 L 20 35 L 20 36 L 20 37 L 20 38 L 20 39 L 20 40 L 20 41 L 20 42 L 20 43 L 21 43 z M 21 35 L 22 35 L 22 34 L 21 34 L 21 35 z M 22 34 L 23 34 L 23 33 L 22 33 L 22 34 z M 23 33 L 24 33 L 24 32 L 23 32 L 23 33 z M 24 32 L 25 32 L 25 31 L 24 31 L 24 32 z M 25 31 L 26 31 L 27 31 L 27 30 L 26 30 L 25 30 L 25 31 z M 27 30 L 28 30 L 29 30 L 29 29 L 28 29 L 27 29 L 27 30 z M 29 29 L 30 29 L 31 29 L 31 28 L 30 28 L 29 28 L 29 29 z M 31 28 L 32 28 L 33 28 L 33 27 L 32 27 L 31 27 L 31 28 z M 33 27 L 34 27 L 34 26 L 34 25 L 34 24 L 34 23 L 33 23 L 33 24 L 33 25 L 33 26 L 33 27 z M 33 23 L 33 22 L 32 22 L 31 22 L 30 22 L 29 22 L 28 22 L 27 22 L 27 23 L 28 23 L 29 23 L 30 23 L 31 23 L 32 23 L 33 23 z M 27 23 L 26 23 L 26 24 L 26 25 L 27 25 L 27 24 L 27 23 z M 26 25 L 25 25 L 24 25 L 23 25 L 22 25 L 21 25 L 21 26 L 22 26 L 23 26 L 24 26 L 25 26 L 26 26 L 26 25 z M 21 25 L 21 24 L 21 23 L 21 22 L 21 21 L 21 20 L 20 20 L 20 21 L 20 22 L 20 23 L 20 24 L 20 25 L 21 25 z M 21 20 L 22 20 L 22 19 L 21 19 L 21 20 z M 22 19 L 23 19 L 23 18 L 22 18 L 22 19 z M 23 18 L 24 18 L 24 17 L 23 17 L 23 18 z "
     style="fill:#595652;fill-opacity:1" />
  <path
     id="rect33020"
     d="M 24 17 L 24 18 L 25 18 L 26 18 L 27 18 L 28 18 L 29 18 L 30 18 L 31 18 L 32 18 L 33 18 L 34 18 L 35 18 L 36 18 L 36 17 L 35 17 L 34 17 L 33 17 L 32 17 L 31 17 L 30 17 L 29 17 L 28 17 L 27 17 L 26 17 L 25 17 L 24 17 z M 36 18 L 36 19 L 37 19 L 37 18 L 36 18 z M 37 19 L 37 20 L 38 20 L 38 19 L 37 19 z M 38 20 L 38 21 L 39 21 L 39 20 L 38 20 z M 24 18 L 23 18 L 23 19 L 24 19 L 24 18 z M 23 19 L 22 19 L 22 20 L 23 20 L 23 19 z M 22 20 L 21 20 L 21 21 L 22 21 L 22 20 z M 27 21 L 27 22 L 28 22 L 29 22 L 30 22 L 31 22 L 32 22 L 33 22 L 33 21 L 32 21 L 31 21 L 30 21 L 29 21 L 28 21 L 27 21 z M 33 22 L 33 23 L 34 23 L 34 22 L 33 22 z M 27 22 L 26 22 L 26 23 L 27 23 L 27 22 z M 21 24 L 21 25 L 22 25 L 23 25 L 24 25 L 25 25 L 26 25 L 26 24 L 25 24 L 24 24 L 23 24 L 22 24 L 21 24 z M 33 27 L 33 28 L 34 28 L 34 27 L 33 27 z M 33 28 L 32 28 L 31 28 L 31 29 L 32 29 L 33 29 L 33 28 z M 31 29 L 30 29 L 29 29 L 29 30 L 30 30 L 31 30 L 31 29 z M 29 30 L 28 30 L 27 30 L 27 31 L 28 31 L 29 31 L 29 30 z M 27 31 L 26 31 L 25 31 L 25 32 L 26 32 L 27 32 L 27 31 z M 25 32 L 24 32 L 24 33 L 25 33 L 25 32 z M 24 33 L 23 33 L 23 34 L 24 34 L 24 33 z M 23 34 L 22 34 L 22 35 L 23 35 L 23 34 z M 22 35 L 21 35 L 21 36 L 22 36 L 22 35 z M 38 28 L 38 29 L 39 29 L 39 28 L 38 28 z M 38 29 L 37 29 L 37 30 L 38 30 L 38 29 z M 37 30 L 36 30 L 36 31 L 37 31 L 37 30 z M 36 31 L 35 31 L 34 31 L 34 32 L 35 32 L 36 32 L 36 31 z M 34 32 L 33 32 L 32 32 L 32 33 L 33 33 L 34 33 L 34 32 z M 32 33 L 31 33 L 30 33 L 30 34 L 31 34 L 32 34 L 32 33 z M 30 34 L 29 34 L 29 35 L 30 35 L 30 34 z M 29 35 L 28 35 L 28 36 L 29 36 L 29 35 z M 28 36 L 27 36 L 27 37 L 28 37 L 28 36 z M 34 36 L 34 37 L 35 37 L 36 37 L 37 37 L 38 37 L 39 37 L 39 36 L 38 36 L 37 36 L 36 36 L 35 36 L 34 36 z M 27 38 L 27 39 L 28 39 L 29 39 L 30 39 L 31 39 L 32 39 L 33 39 L 34 39 L 34 38 L 33 38 L 32 38 L 31 38 L 30 38 L 29 38 L 28 38 L 27 38 z M 38 41 L 38 42 L 39 42 L 39 41 L 38 41 z M 38 42 L 37 42 L 36 42 L 35 42 L 34 42 L 33 42 L 32 42 L 31 42 L 30 42 L 29 42 L 28 42 L 27 42 L 26 42 L 25 42 L 24 42 L 23 42 L 22 42 L 21 42 L 21 43 L 22 43 L 23 43 L 24 43 L 25 43 L 26 43 L 27 43 L 28 43 L 29 43 L 30 43 L 31 43 L 32 43 L 33 43 L 34 43 L 35 43 L 36 43 L 37 43 L 38 43 L 38 42 z "
     style="fill:#9badb7;fill-opacity:1" />
  <path
     id="rect33128"
     d="M 24 18 L 24 19 L 23 19 L 23 20 L 22 20 L 22 21 L 21 21 L 21 22 L 21 23 L 21 24 L 22 24 L 23 24 L 24 24 L 25 24 L 26 24 L 26 23 L 26 22 L 27 22 L 27 21 L 28 21 L 29 21 L 30 21 L 31 21 L 32 21 L 33 21 L 33 22 L 34 22 L 34 23 L 34 24 L 34 25 L 34 26 L 34 27 L 34 28 L 33 28 L 33 29 L 32 29 L 31 29 L 31 30 L 30 30 L 29 30 L 29 31 L 28 31 L 27 31 L 27 32 L 26 32 L 25 32 L 25 33 L 24 33 L 24 34 L 23 34 L 23 35 L 22 35 L 22 36 L 21 36 L 21 37 L 21 38 L 21 39 L 21 40 L 21 41 L 21 42 L 22 42 L 23 42 L 24 42 L 25 42 L 26 42 L 27 42 L 28 42 L 29 42 L 30 42 L 31 42 L 32 42 L 33 42 L 34 42 L 35 42 L 36 42 L 37 42 L 38 42 L 38 41 L 39 41 L 39 40 L 39 39 L 39 38 L 39 37 L 38 37 L 37 37 L 36 37 L 35 37 L 34 37 L 34 38 L 34 39 L 33 39 L 32 39 L 31 39 L 30 39 L 29 39 L 28 39 L 27 39 L 27 38 L 27 37 L 27 36 L 28 36 L 28 35 L 29 35 L 29 34 L 30 34 L 30 33 L 31 33 L 32 33 L 32 32 L 33 32 L 34 32 L 34 31 L 35 31 L 36 31 L 36 30 L 37 30 L 37 29 L 38 29 L 38 28 L 39 28 L 39 27 L 39 26 L 39 25 L 39 24 L 39 23 L 39 22 L 39 21 L 38 21 L 38 20 L 37 20 L 37 19 L 36 19 L 36 18 L 35 18 L 34 18 L 33 18 L 32 18 L 31 18 L 30 18 L 29 18 L 28 18 L 27 18 L 26 18 L 25 18 L 24 18 z "
     style="fill:#f4f4f4;fill-opacity:1" />
  <path
     id="rect6760"
     d="m 7.9999355,3.0018806 v 0.9999998 h -1.000002 v 1 h -1 v 1 h -1 v 1 H 3.9999337 V 8.0018805 H 2.9999347 V 52.001883 h 0.999999 v 1 h 0.9999998 v 1 h 1 v 1 h 1 v 1 h 1.000002 v 1 H 51.999945 v -1 h 1 v -1 h 1 v -1 h 1 v -1 h 1 v -1 h 1 V 8.0018805 h -1 V 7.0018804 h -1 v -1 h -1 v -1 h -1 v -1 h -1 v -1 z M 9.999946,6.0018805 h 39.999999 v 1 h 1 v 1 h 1 v 1 h 1 v 1.0000025 h 1 v 40 h -1 v 1 h -1 v 1 h -1 v 1 h -1 v 1 H 9.9999447 v -1 H 8.9999356 v -1 h -1 v -1 h -1.000002 v -1 h -1 v -40 h 1 V 9.0018805 h 1.000002 v -1 h 1 V 7.0018804 h 1.0000091 z"
     sodipodi:nodetypes="cccccccccccccccccccccccccccccccccccccccccccccccccccccccccccccccccccccccccccccccccc" />
  <path
     id="rect7046"
     style="fill:#595652;fill-opacity:1"
     d="m 9.9999447,6.0018805 v 1 H 8.9999356 v 1 h -1 v 1 h -1.000002 v 1.0000025 h -1 v 40 h 1 v 1 h 1.000002 v 1 h 1 v 1 h 1.0000091 v 1 H 49.999945 v -1 h 1 v -1 h 1 v -1 h 1 v -1 h 1 v -40 h -1 V 9.0018805 h -1 v -1 h -1 V 7.0018804 h -1 v -1 z m 0,2 H 49.999945 v 1 h 1 v 1.0000025 h 1 v 40 h -1 v 1 h -1 v 1 H 9.9999447 v -1 H 8.9999356 v -1 h -1 v -40 h 1 V 9.0018805 h 1.0000091 z"
     sodipodi:nodetypes="cccccccccccccccccccccccccccccccccccccccccccccccccccccccccc" />
  <path
     id="rect11992"
     d="m 3.0007355,52.000047 v 1 1 h 0.9999997 v 1 h 1 v 1 h 1 v 1 h 1 v 1 h 1.0000003 v 1 H 52.000741 v -1 h 1 v -1 h 1 v -1 h 1 v -1 h 1 v -1 h 1 v -1 -1 h -1 v 1 h -1 v 1 h -1 v 1 h -1 v 1 h -1 v 1 H 8.0007355 v -1 H 7.0007349 v -1 h -1 v -1 h -1 v -1 h -1 v -1 z"
     style="fill:#696a6a;fill-opacity:1"
     sodipodi:nodetypes="ccccccccccccccccccccccccccccccccccccccccccccccc" />
  <path
     id="rect12208"
     d="m 3.0007355,54.000047 v 1 h 0.9999997 v -1 z m 0.9999997,1 v 1 h 1 v -1 z m 1,1 v 1 h 1 v -1 z m 1,1 v 1 h 1 v -1 z m 1,1 v 1 h 1.0000003 v -1 z m 1.0000003,1 v 1 c 14.6666725,0 29.3333385,0 44.0000055,0 v -1 c -14.666667,0 -29.333333,0 -44.0000055,0 z m 44.0000055,0 h 1 v -1 h -1 z m 1,-1 h 1 v -1 h -1 z m 1,-1 h 1 v -1 h -1 z m 1,-1 h 1 v -1 h -1 z m 1,-1 h 1 v -1 h -1 z"
     style="fill:#847e87;fill-opacity:1"
     sodipodi:nodetypes="ccccccccccccccccccccccccccccccccccccccccccccccccccccccc" />
</svg>
